<svg width="20" height="20" viewBox="0 0 20 20" fill="none" xmlns="http://www.w3.org/2000/svg">
<path fill-rule="evenodd" clip-rule="evenodd" d="M9.99744 0C10.4389 0 10.9039 0.011721 11.0328 0.0351631C11.1617 0.0546982 11.4704 0.0976753 11.7165 0.136745C11.9627 0.171909 12.369 0.250049 12.6151 0.308654C12.8613 0.371166 13.2403 0.476656 13.4551 0.546982C13.67 0.613401 14.0295 0.750147 14.2561 0.843915C14.4827 0.937683 14.8695 1.12131 15.1156 1.25415C15.3618 1.38308 15.7486 1.6136 15.9752 1.76597C16.2018 1.91834 16.5065 2.13714 16.6589 2.25435C16.8113 2.37156 17.1785 2.71928 17.4794 3.02012C17.7841 3.32487 18.1553 3.73901 18.3077 3.94218C18.46 4.14534 18.6866 4.48134 18.8078 4.68451C18.9328 4.88767 19.1125 5.22368 19.2102 5.42684C19.3039 5.63001 19.4368 5.93866 19.4993 6.11057C19.5618 6.28248 19.6595 6.58332 19.7103 6.77476C19.765 6.9662 19.8431 7.32956 19.8861 7.5757C19.933 7.84138 19.976 8.30631 19.9877 8.70873C20.0033 9.17367 19.9955 9.46279 19.9642 9.60735C19.9369 9.72456 19.8783 9.98242 19.8353 10.1739C19.7923 10.3653 19.7064 10.6583 19.6478 10.8185C19.5892 10.9787 19.4837 11.2248 19.4133 11.3655C19.343 11.5062 19.1946 11.7601 19.0812 11.932C18.9679 12.1039 18.7492 12.3852 18.6007 12.5571C18.4522 12.729 18.2022 12.9752 18.0498 13.1041C17.8974 13.2331 17.6435 13.4245 17.4872 13.5261C17.3348 13.6316 17.0574 13.7879 16.8738 13.8738C16.6902 13.9637 16.401 14.0809 16.2291 14.1434C16.0572 14.202 15.7759 14.2801 15.604 14.3153C15.4321 14.3505 15.1156 14.3934 14.9007 14.413C14.6859 14.4325 14.0099 14.4481 13.3965 14.452C12.5097 14.452 12.2362 14.4638 12.0486 14.5146C11.9197 14.5458 11.7361 14.624 11.6384 14.6786C11.5446 14.7373 11.3962 14.8545 11.3063 14.9404C11.2203 15.0303 11.0992 15.1866 11.0406 15.292C10.9781 15.4014 10.9039 15.6007 10.8687 15.7414C10.8296 15.9133 10.8179 16.0852 10.8335 16.2688C10.8492 16.4563 10.8921 16.6204 10.9781 16.7962C11.0445 16.9369 11.1735 17.1479 11.2672 17.2651C11.361 17.3823 11.4704 17.5581 11.5173 17.6558C11.5602 17.7535 11.611 17.9449 11.6306 18.0856C11.654 18.234 11.654 18.4372 11.6345 18.5739C11.6149 18.7029 11.5524 18.9139 11.4899 19.0428C11.4274 19.1717 11.318 19.3475 11.2438 19.4296C11.1695 19.5116 11.0328 19.6367 10.9351 19.6992C10.8375 19.7656 10.6538 19.8593 10.5249 19.9101C10.3217 19.9883 10.2201 20 9.79037 20C9.49734 20 9.06367 19.9687 8.73548 19.918C8.43073 19.875 7.98924 19.7968 7.75091 19.7421C7.51258 19.6913 7.08281 19.5663 6.79369 19.4686C6.50457 19.371 6.00057 19.1639 5.68019 19.0076C5.35591 18.8513 4.91832 18.613 4.70344 18.4802C4.48855 18.3434 4.14474 18.109 3.94157 17.9566C3.73841 17.8004 3.33598 17.4487 3.04687 17.1674C2.76165 16.89 2.3983 16.4993 2.24202 16.3079C2.08574 16.1164 1.82006 15.7531 1.65597 15.5069C1.48797 15.2608 1.20666 14.7607 1.02694 14.3934C0.851124 14.0262 0.624518 13.4909 0.526842 13.2018C0.429167 12.9127 0.304142 12.4829 0.253351 12.2446C0.198653 12.0063 0.128327 11.6312 0.0931637 11.4046C0.0580006 11.178 0.0228375 10.6349 0.00720942 10.1934C-0.00841864 9.55655 -0.000604607 9.29088 0.0501866 8.90408C0.0853497 8.6345 0.159583 8.19691 0.214281 7.92733C0.268979 7.65775 0.401818 7.17328 0.507307 6.8529C0.624518 6.50518 0.835496 5.99727 1.02694 5.60266C1.20666 5.2393 1.48797 4.7353 1.65597 4.48916C1.82006 4.24302 2.08574 3.87966 2.24202 3.68822C2.3983 3.49287 2.76165 3.10608 3.04687 2.82868C3.33598 2.54737 3.73841 2.19574 3.94157 2.03946C4.14474 1.88709 4.48855 1.65267 4.70344 1.51592C4.91832 1.38308 5.35591 1.14475 5.68019 0.988474C6.00057 0.832194 6.52801 0.617308 6.8523 0.511819C7.17267 0.402422 7.61416 0.277398 7.82905 0.234421C8.04394 0.187537 8.43854 0.11721 8.70813 0.0781403C9.05194 0.0273491 9.43483 0.00390701 9.99744 0V0ZM6.43034 2.42626C6.34048 2.46923 6.17638 2.59035 6.07089 2.69193C5.9615 2.79742 5.82085 2.98887 5.75052 3.12561C5.68019 3.26236 5.60596 3.48896 5.58252 3.62962C5.55908 3.80152 5.55908 3.96562 5.58252 4.13753C5.60596 4.27818 5.67629 4.49697 5.7388 4.6259C5.80131 4.75484 5.93415 4.94628 6.03964 5.04786C6.14122 5.15335 6.32485 5.28619 6.44206 5.3487C6.55927 5.40731 6.75462 5.47763 6.87183 5.50498C6.99295 5.53233 7.19611 5.54796 7.34067 5.53624C7.48133 5.52452 7.70012 5.47373 7.82905 5.42293C7.95798 5.37605 8.14942 5.26275 8.25882 5.17289C8.36431 5.08693 8.51668 4.91893 8.59873 4.80172C8.67687 4.68451 8.77064 4.48916 8.8058 4.37195C8.84487 4.25083 8.87222 4.03204 8.87222 3.86404C8.86832 3.67259 8.84097 3.49678 8.79018 3.35612C8.7472 3.23891 8.65343 3.05138 8.5792 2.94589C8.50496 2.83649 8.3604 2.68021 8.25491 2.59035C8.14943 2.5044 7.95798 2.395 7.82905 2.34421C7.6884 2.28951 7.47742 2.24653 7.3016 2.23872C7.11407 2.227 6.93434 2.24263 6.80151 2.2817C6.69211 2.31295 6.52411 2.37937 6.43034 2.42626ZM11.9978 2.41453C11.9197 2.45751 11.7829 2.55128 11.697 2.62161C11.611 2.69584 11.4821 2.84431 11.4118 2.9498C11.3415 3.05528 11.2477 3.23891 11.2047 3.35612C11.1539 3.50068 11.1266 3.66869 11.1227 3.86404C11.1227 4.03204 11.15 4.25083 11.1891 4.37195C11.2242 4.48916 11.318 4.68451 11.3962 4.80172C11.4782 4.91893 11.6267 5.08693 11.7361 5.17289C11.8416 5.26275 12.0369 5.37605 12.1658 5.42293C12.2948 5.47373 12.5136 5.52452 12.6542 5.53624C12.7988 5.54796 13.0019 5.53233 13.1231 5.50498C13.2403 5.47763 13.4356 5.40731 13.5528 5.3487C13.67 5.28619 13.8537 5.15335 13.9552 5.04786C14.0607 4.94628 14.1936 4.75484 14.2561 4.6259C14.3186 4.49697 14.3889 4.27818 14.4124 4.13753C14.4358 3.96562 14.4358 3.80152 14.4124 3.62962C14.3889 3.48896 14.3147 3.26236 14.2444 3.12561C14.174 2.98887 14.0334 2.79742 13.924 2.69193C13.8146 2.59035 13.6544 2.46923 13.5606 2.42626C13.4708 2.37937 13.295 2.31295 13.1699 2.2817C13.0488 2.25044 12.8574 2.22309 12.7519 2.227C12.6425 2.227 12.4628 2.25435 12.3495 2.2856C12.2401 2.31686 12.0799 2.37546 11.9978 2.41453ZM3.05077 6.88416C2.98435 6.92323 2.83198 7.04434 2.71868 7.15765C2.60928 7.27095 2.46863 7.45849 2.40612 7.5757C2.34751 7.69291 2.27718 7.91561 2.25374 8.06408C2.21858 8.27505 2.21858 8.39617 2.25374 8.59934C2.28109 8.7478 2.35142 8.9666 2.41393 9.08771C2.47644 9.21274 2.61319 9.40027 2.71868 9.50576C2.82026 9.61125 3.0117 9.74409 3.14063 9.8066C3.26957 9.86912 3.48836 9.93944 3.62901 9.96288C3.81655 9.99805 3.94939 9.99805 4.13692 9.96288C4.27758 9.93944 4.49637 9.86912 4.6253 9.81051C4.75423 9.748 4.93786 9.61907 5.03554 9.5253C5.13321 9.42762 5.25823 9.27134 5.31684 9.17757C5.37154 9.0799 5.44968 8.89627 5.48094 8.76734C5.5161 8.63841 5.54345 8.43524 5.54345 8.31803C5.54345 8.20082 5.51219 7.98984 5.46921 7.84919C5.42233 7.70072 5.32075 7.49756 5.21916 7.36081C5.1254 7.23188 4.98865 7.07951 4.91442 7.02481C4.84018 6.97011 4.71907 6.89197 4.64483 6.8529C4.5706 6.81383 4.42995 6.75913 4.33227 6.73178C4.2346 6.70053 4.02362 6.67709 3.86343 6.68099C3.68762 6.68099 3.49227 6.71225 3.37505 6.75132C3.26566 6.79039 3.1211 6.84899 3.05077 6.88416ZM15.3501 6.8529C15.2758 6.89197 15.1547 6.97011 15.0805 7.02481C15.0062 7.07951 14.8695 7.23188 14.7757 7.36081C14.6741 7.49756 14.5726 7.70072 14.5257 7.84919C14.4827 7.98984 14.4514 8.20082 14.4514 8.31803C14.4514 8.43524 14.4788 8.63841 14.514 8.76734C14.5452 8.89627 14.6233 9.0799 14.678 9.17757C14.7367 9.27134 14.8617 9.42762 14.9593 9.5253C15.057 9.61907 15.2407 9.748 15.3696 9.81051C15.4985 9.86912 15.7173 9.93944 15.858 9.96288C16.0455 9.99805 16.1783 9.99805 16.3659 9.96288C16.5065 9.93944 16.7253 9.86912 16.8542 9.8066C16.9832 9.748 17.1746 9.61125 17.2762 9.50576C17.3817 9.40027 17.5184 9.21274 17.581 9.08771C17.6435 8.9666 17.7138 8.7478 17.7411 8.59934C17.7763 8.39617 17.7763 8.27505 17.7411 8.06408C17.7177 7.91561 17.6474 7.69291 17.5888 7.5757C17.5263 7.45849 17.3856 7.27095 17.2723 7.15765C17.1629 7.04434 17.0105 6.92323 16.9402 6.88806C16.8738 6.84899 16.7175 6.79039 16.6003 6.74741C16.4596 6.70053 16.2877 6.67709 16.0924 6.68099C15.9322 6.68099 15.729 6.70834 15.6431 6.73569C15.5571 6.75913 15.4243 6.81383 15.3501 6.8529Z" fill="white"/>
</svg>
