<svg width="41" height="30" viewBox="0 0 41 30" fill="none" xmlns="http://www.w3.org/2000/svg">
<path d="M17.9329 0.495493C18.1892 0.401719 18.6505 0.248272 18.9581 0.163023C19.3255 0.0607252 19.8295 0.0095761 20.4276 0.00105125C21.0939 -0.0074736 21.5211 0.0351507 21.9654 0.154499C22.3071 0.248272 22.8026 0.401719 23.0589 0.495493C23.3152 0.589266 23.8278 0.862061 24.1866 1.10076C24.554 1.33093 25.0666 1.74865 25.34 2.01292C25.6048 2.28571 26.0064 2.7972 26.237 3.14672C26.4677 3.49624 26.7326 3.99921 26.8265 4.25495C26.9205 4.5107 27.0658 4.95399 27.1426 5.23531C27.2366 5.58483 27.2879 6.08779 27.2879 6.81241C27.2879 7.53702 27.2366 8.03999 27.1426 8.3895C27.0658 8.67082 26.9205 9.11412 26.8265 9.36986C26.7326 9.62561 26.4677 10.1286 26.237 10.4781C26.0064 10.8276 25.5963 11.3476 25.3144 11.6204C25.041 11.9017 24.5198 12.3109 24.1696 12.5411C23.8193 12.7713 23.3152 13.0355 23.0589 13.1293C22.8026 13.2231 22.3584 13.368 22.0764 13.4447C21.7261 13.5385 21.2221 13.5897 20.4959 13.5897C19.7697 13.5897 19.2657 13.5385 18.9154 13.4447C18.6334 13.368 18.1892 13.2231 17.9329 13.1293C17.6766 13.0355 17.1725 12.7713 16.8223 12.5411C16.472 12.3109 15.9508 11.9017 15.6774 11.6204C15.3955 11.3476 14.9854 10.8276 14.7548 10.4781C14.5241 10.1286 14.2592 9.62561 14.1653 9.36986C14.0713 9.11412 13.926 8.67082 13.8492 8.3895C13.7552 8.03999 13.7039 7.53702 13.7039 6.81241C13.7039 6.08779 13.7552 5.58483 13.8492 5.23531C13.926 4.95399 14.0713 4.5107 14.1653 4.25495C14.2592 3.99921 14.5326 3.48772 14.7718 3.12115C15.0025 2.7631 15.4211 2.25161 15.686 1.97882C15.9594 1.71455 16.472 1.31388 16.8223 1.08371C17.1725 0.853536 17.6766 0.589266 17.9329 0.495493Z" fill="white"/>
<path d="M14.0884 16.1045C14.3447 15.8828 14.712 15.6015 14.8914 15.4737C15.1221 15.3202 15.3442 15.252 15.6005 15.252C15.8312 15.252 16.2157 15.3628 16.6514 15.5504C17.0273 15.7124 17.6339 15.9255 17.9927 16.0107C18.3601 16.1045 18.7531 16.1897 19.0862 16.2324L19.1717 23.666L19.428 23.99C19.5732 24.169 19.821 24.3736 19.9833 24.4418C20.1713 24.5185 20.4276 24.5441 20.6668 24.5185C20.8804 24.4929 21.1452 24.3992 21.2563 24.3139C21.3673 24.2287 21.5382 24.0497 21.6407 23.9218C21.8116 23.6831 21.8201 23.5808 21.9056 16.2494L22.4609 16.1301C22.7684 16.0704 23.264 15.934 23.5715 15.8317C23.8791 15.7294 24.3148 15.5589 24.554 15.4481C24.7932 15.3373 25.152 15.252 25.3656 15.252C25.6476 15.252 25.8441 15.3117 26.0918 15.4737C26.2798 15.6015 26.6471 15.8828 26.9034 16.1045C27.1597 16.3261 27.6211 16.8206 27.9286 17.2042C28.2362 17.5878 28.6634 18.2357 28.8855 18.6449C29.1076 19.0541 29.4066 19.7361 29.5433 20.1538C29.68 20.5715 29.8424 21.1086 29.9022 21.3473C29.9705 21.6456 30.0132 23.0437 30.0645 30H10.9273L10.9615 25.8825C10.9786 23.0437 11.0213 21.6456 11.0896 21.3473C11.1494 21.1086 11.3118 20.5715 11.4485 20.1538C11.5852 19.7361 11.8842 19.0541 12.1063 18.6449C12.3284 18.2357 12.7556 17.5878 13.0632 17.2042C13.3707 16.8206 13.8321 16.3261 14.0884 16.1045Z" fill="white"/>
<path d="M1.9995 18.3636C2.2558 18.1078 2.7086 17.7413 2.99907 17.5537C3.39207 17.298 3.61419 17.2127 3.87049 17.2127C4.06699 17.2127 4.43436 17.2809 4.69066 17.3747C4.94696 17.4599 5.46811 17.5793 5.84401 17.639C6.26264 17.7072 6.80942 17.7327 7.25367 17.6986C7.65521 17.6731 8.17636 17.5963 8.40703 17.5281C8.64624 17.4599 9.01361 17.3576 9.23573 17.2894C9.45786 17.2213 9.65436 17.1872 9.67999 17.2127C9.70562 17.2383 9.57747 17.5622 9.39806 17.9373C9.21865 18.3124 8.96235 18.9262 8.84274 19.3013C8.71459 19.6764 8.53518 20.3499 8.43266 20.7932C8.26179 21.5519 8.2447 21.8843 8.19344 30H0.84614L0.461688 29.6164C0.222474 29.3777 0.0601498 29.1305 0.0259763 28.9514C0.000346163 28.8065 -0.00819721 27.1783 0.00888954 25.354C0.0345197 22.6004 0.0686932 21.9525 0.179757 21.5604C0.256647 21.3047 0.401885 20.8784 0.495862 20.6227C0.589839 20.3669 0.863227 19.8554 1.10244 19.4889C1.33311 19.1308 1.74319 18.6193 1.9995 18.3636Z" fill="white"/>
<path d="M31.5937 17.9544C31.4058 17.5963 31.2606 17.2809 31.2606 17.2554C31.2606 17.2298 31.3289 17.2127 31.4143 17.2127C31.4912 17.2127 31.7304 17.2724 31.944 17.3491C32.1576 17.4173 32.6104 17.5367 32.9521 17.6049C33.2853 17.6731 33.8321 17.7242 34.1653 17.7242C34.4985 17.7242 35.0453 17.6731 35.387 17.6049C35.7202 17.5367 36.173 17.4173 36.3866 17.3491C36.6002 17.2724 36.9248 17.2127 37.1128 17.2127C37.3691 17.2127 37.5912 17.298 37.9927 17.5537C38.2832 17.7413 38.736 18.1078 38.9923 18.3636C39.2486 18.6193 39.6587 19.1308 39.8894 19.4889C40.1286 19.8554 40.402 20.3669 40.4959 20.6227C40.5985 20.8784 40.7437 21.3814 40.8377 21.7309C40.9829 22.3021 41 22.7113 41 25.6268C41 28.1416 40.9744 28.9514 40.8889 29.1646C40.8206 29.318 40.6241 29.5738 40.1029 30H32.7984L32.7727 25.7973C32.7386 21.8758 32.73 21.5519 32.5591 20.7932C32.4566 20.3499 32.2687 19.6764 32.1491 19.3013C32.0209 18.9262 31.7732 18.321 31.5937 17.9544Z" fill="white"/>
<path d="M4.34892 6.06222C4.75046 5.86615 5.32287 5.65303 5.63043 5.58483C5.93799 5.51663 6.45914 5.45696 6.78379 5.45696C7.10843 5.45696 7.65521 5.5081 7.97986 5.5763C8.30451 5.6445 8.90254 5.86615 9.30408 6.06222C9.84231 6.32649 10.184 6.58224 10.6283 7.02553C10.953 7.358 11.3716 7.86949 11.551 8.17638C11.7304 8.48328 11.9611 9.00329 12.0636 9.32724C12.2088 9.7961 12.2515 10.1286 12.2515 10.9043C12.2515 11.6801 12.2088 12.0126 12.0636 12.4814C11.9611 12.8054 11.7304 13.3254 11.551 13.6323C11.3716 13.9307 10.9786 14.4336 10.671 14.7405C10.3635 15.0474 9.8594 15.4396 9.56038 15.6186C9.25282 15.7976 8.75731 16.0192 8.44974 16.113C8.14218 16.2068 7.55269 16.3091 7.12552 16.3347C6.61292 16.3631 6.15727 16.3347 5.75858 16.2494C5.43393 16.1812 4.87007 15.9937 4.51979 15.8232C4.16951 15.6612 3.65691 15.3458 3.39207 15.1327C3.11868 14.9195 2.74277 14.5359 2.54627 14.2972C2.35832 14.05 2.06784 13.5726 1.90552 13.2487C1.74319 12.9247 1.55524 12.3791 1.48689 12.0552C1.41855 11.7312 1.35874 11.2112 1.35874 10.9043C1.35874 10.5974 1.41855 10.0774 1.48689 9.75348C1.55524 9.42954 1.77737 8.8328 1.97387 8.43213C2.24725 7.88654 2.49501 7.54554 2.98198 7.06815C3.46896 6.57371 3.7936 6.33502 4.34892 6.06222Z" fill="white"/>
<path d="M31.6877 6.06222C32.0893 5.86615 32.6617 5.65303 32.9692 5.58483C33.2768 5.51663 33.7894 5.45696 34.1226 5.45696C34.4558 5.45696 34.9855 5.5081 35.3187 5.5763C35.6518 5.6445 36.2413 5.86615 36.6429 6.06222C37.1811 6.32649 37.5228 6.58224 37.9671 7.02553C38.3003 7.358 38.7104 7.86949 38.8898 8.17638C39.0692 8.48328 39.2999 9.00329 39.4024 9.32724C39.5476 9.7961 39.5903 10.1286 39.5903 10.9043C39.5903 11.6801 39.5476 12.0126 39.4024 12.4814C39.2999 12.8054 39.0692 13.3254 38.8898 13.6323C38.7104 13.9307 38.3174 14.4336 38.0098 14.7405C37.7023 15.0474 37.1982 15.4396 36.8992 15.6186C36.5916 15.7976 36.0961 16.0192 35.7885 16.113C35.481 16.2068 34.8829 16.3091 34.4643 16.3347C33.9517 16.3631 33.4961 16.3347 33.0974 16.2494C32.7642 16.1812 32.2089 15.9937 31.8586 15.8232C31.5083 15.6612 30.9957 15.3458 30.7309 15.1327C30.4575 14.9195 30.0816 14.5359 29.8851 14.2972C29.6971 14.05 29.4066 13.5726 29.2443 13.2487C29.082 12.9247 28.894 12.3791 28.8257 12.0552C28.7573 11.7312 28.6975 11.2112 28.6975 10.9043C28.6975 10.5974 28.7573 10.0774 28.8257 9.75348C28.894 9.42954 29.1162 8.8328 29.3127 8.43213C29.5861 7.88654 29.8338 7.54554 30.3208 7.06815C30.8078 6.57371 31.1324 6.33502 31.6877 6.06222Z" fill="white"/>
</svg>