<svg width="50" height="50" viewBox="0 0 50 50" fill="none" xmlns="http://www.w3.org/2000/svg">
<path opacity="0.65" fill-rule="evenodd" clip-rule="evenodd" d="M33.1202 17.0005C33.4108 16.9963 33.5287 17.0174 33.7519 17.1016C33.9036 17.1605 34.0847 17.2448 34.152 17.2911C34.2194 17.3332 34.3795 17.4722 34.5016 17.6028C34.6195 17.7333 34.7838 17.9649 34.8554 18.125C34.9859 18.3945 34.9943 18.4324 34.9943 18.8915C34.9943 19.3547 34.9901 19.3884 34.8511 19.6706C34.7669 19.8475 34.6195 20.0623 34.4721 20.2097C34.3331 20.3529 34.131 20.5045 33.9836 20.5803C33.8446 20.6477 33.6256 20.7235 33.4993 20.7487C33.3729 20.774 33.1455 20.7866 32.9939 20.774C32.8423 20.7614 32.6148 20.7108 32.4885 20.6645C32.3621 20.6182 32.1431 20.4961 32.0042 20.395C31.8652 20.2939 31.6799 20.1086 31.5957 19.9822C31.5072 19.8559 31.3977 19.6411 31.3472 19.5021C31.2798 19.321 31.2545 19.1526 31.2545 18.8915C31.2545 18.6304 31.2798 18.4619 31.3472 18.2808C31.3977 18.1418 31.5072 17.927 31.5957 17.8007C31.6799 17.6743 31.8441 17.5017 31.9621 17.4132C32.0758 17.3248 32.3032 17.1942 32.4674 17.1269C32.7117 17.0216 32.8212 17.0005 33.1202 17.0005ZM32.6864 18.4619C32.6233 18.5251 32.5517 18.6472 32.5306 18.7356C32.5053 18.8325 32.5011 18.9504 32.5264 19.0515C32.5517 19.1399 32.6275 19.2621 32.7075 19.3379C32.7833 19.4095 32.9139 19.4811 32.9939 19.4979C33.0739 19.5148 33.2002 19.519 33.2676 19.5063C33.335 19.4937 33.4445 19.4474 33.5119 19.3969C33.5751 19.3505 33.6551 19.2579 33.6888 19.1863C33.7225 19.1147 33.7519 18.9799 33.7519 18.883C33.7519 18.7651 33.7225 18.6514 33.6593 18.5546C33.6045 18.4745 33.495 18.3735 33.415 18.3356C33.335 18.2934 33.2087 18.2597 33.1413 18.264C33.0739 18.264 32.9686 18.285 32.9096 18.3061C32.8507 18.3313 32.7496 18.3987 32.6864 18.4619ZM16.6743 22.8082C16.767 22.8082 16.9017 22.8461 16.9775 22.8924C17.0533 22.9387 17.1544 23.0398 17.2007 23.1156C17.2471 23.1872 17.285 23.322 17.285 23.4104C17.285 23.4946 17.2513 23.6336 17.2092 23.7221C17.1544 23.8358 17.0323 23.9453 16.7164 24.1516C16.4848 24.3032 16.1437 24.5812 15.9583 24.7665C15.7014 25.0192 15.5751 25.1835 15.453 25.4361C15.2971 25.7478 15.2845 25.7983 15.2845 26.131C15.2845 26.4595 15.2971 26.5227 15.4361 26.8091C15.5372 27.0239 15.6804 27.226 15.8783 27.4366C16.0384 27.6051 16.2742 27.8283 16.4006 27.9251C16.5269 28.022 16.7922 28.1989 16.9902 28.3168C17.1881 28.4347 17.5629 28.6285 17.8198 28.7464C18.0809 28.8601 18.5189 29.0328 18.7885 29.1296C19.0622 29.2223 19.5297 29.3613 19.8329 29.4413C20.1319 29.5213 20.6373 29.635 20.949 29.694C21.2606 29.7529 21.7239 29.8245 21.9808 29.8582C22.2335 29.8919 22.4525 29.9088 22.4651 29.9003C22.4778 29.8919 22.3683 29.7656 22.2293 29.6224C22.0861 29.475 21.9471 29.3065 21.9218 29.2391C21.8966 29.176 21.8755 29.0538 21.8755 28.9654C21.8755 28.8812 21.9134 28.7464 21.9597 28.6706C22.0061 28.599 22.1071 28.4979 22.1787 28.4516C22.2545 28.4053 22.3893 28.3673 22.4735 28.3673C22.562 28.3673 22.6841 28.3884 22.7473 28.4137C22.8147 28.4347 23.2695 28.8601 23.7665 29.3486C24.4235 30.0014 24.6888 30.292 24.7478 30.431C24.8109 30.5742 24.8236 30.6626 24.8025 30.789C24.7772 30.9364 24.6635 31.0669 23.817 31.9176C23.2948 32.4483 22.8147 32.9073 22.7473 32.941C22.6841 32.9747 22.5662 33 22.4862 33C22.4062 33 22.2672 32.9579 22.1787 32.9031C22.0945 32.8484 21.9892 32.7347 21.9471 32.6504C21.9092 32.5662 21.8755 32.4272 21.8755 32.3472C21.8755 32.2672 21.8966 32.1577 21.9218 32.103C21.9471 32.0524 22.1408 31.8376 22.3556 31.6228C22.6167 31.3575 22.7178 31.227 22.6757 31.2185C22.642 31.2059 22.3472 31.168 22.0229 31.1343C21.6986 31.0964 21.168 31.0164 20.8437 30.9574C20.5194 30.8985 20.0182 30.7932 19.7276 30.7216C19.437 30.65 18.9359 30.5068 18.6116 30.4015C18.2873 30.2962 17.803 30.1151 17.5377 30.0056C17.2723 29.8919 16.8428 29.6855 16.5901 29.5424C16.3332 29.3992 15.992 29.1886 15.832 29.0707C15.6678 28.957 15.4151 28.7548 15.2677 28.6243C15.1203 28.4937 14.8802 28.2452 14.7412 28.0683C14.598 27.8914 14.4169 27.6051 14.3285 27.4366C14.2443 27.2639 14.1348 26.9818 14.0884 26.8091C14.0337 26.6238 14 26.3669 14 26.1858C14 26.0215 14.0295 25.7436 14.0674 25.5751C14.1053 25.4109 14.2022 25.1287 14.2822 24.956C14.3622 24.7834 14.5096 24.5265 14.6065 24.3875C14.7075 24.2485 14.9602 23.9748 15.1666 23.7768C15.3729 23.5789 15.6846 23.322 15.8573 23.204C16.0257 23.0861 16.2447 22.9471 16.3374 22.8966C16.43 22.8503 16.5817 22.8082 16.6743 22.8082V22.8082ZM33.3518 23.0735C33.5035 23.0903 33.6256 23.1409 33.7941 23.2588C33.9162 23.3472 34.1899 23.5789 34.3963 23.7768C34.6027 23.9748 34.8554 24.2485 34.9564 24.3875C35.0533 24.5265 35.2007 24.7834 35.2807 24.956C35.3607 25.1287 35.4576 25.4151 35.4997 25.5878C35.5545 25.8236 35.5713 26.0005 35.5545 26.2827C35.5376 26.5185 35.4913 26.788 35.4197 26.9986C35.3607 27.1839 35.2175 27.4871 35.1038 27.6725C34.9901 27.8578 34.7753 28.1399 34.6279 28.3C34.4847 28.46 34.211 28.7085 34.0257 28.8517C33.8404 28.9991 33.5372 29.2096 33.3518 29.3276C33.1665 29.4413 32.8633 29.6097 32.678 29.7066C32.4927 29.7993 32.1684 29.9467 31.9621 30.0309C31.7515 30.1193 31.364 30.2625 31.0987 30.3552C30.8334 30.4436 30.4038 30.5742 30.1511 30.6416C29.8942 30.7089 29.452 30.8142 29.1614 30.8732C28.8708 30.9364 28.3991 31.0206 28.1085 31.0627C27.7211 31.1217 27.5442 31.1343 27.4347 31.1006C27.3547 31.0796 27.2452 31.0332 27.1904 30.9995C27.1399 30.9658 27.0599 30.8521 27.0135 30.7468C26.9546 30.6163 26.9377 30.5152 26.9546 30.4184C26.9714 30.3468 27.0093 30.233 27.0388 30.1657C27.0725 30.1025 27.1609 30.014 27.2325 29.9719C27.3083 29.9256 27.5316 29.8666 27.7295 29.8414C27.9274 29.8161 28.336 29.7487 28.635 29.6898C28.934 29.6308 29.4309 29.5213 29.73 29.4413C30.029 29.3613 30.467 29.2349 30.6986 29.1549C30.9302 29.0749 31.3261 28.9233 31.583 28.818C31.8357 28.7085 32.2147 28.5232 32.4253 28.4053C32.6317 28.2873 32.9265 28.0978 33.0781 27.9883C33.2297 27.8746 33.4782 27.6556 33.6298 27.4956C33.7814 27.3397 33.9583 27.1292 34.0173 27.0281C34.0804 26.9312 34.1689 26.7333 34.2194 26.5859C34.291 26.3753 34.3036 26.2658 34.2826 26.03C34.2657 25.8362 34.2194 25.6509 34.1394 25.4825C34.072 25.3435 33.9204 25.1119 33.8025 24.9645C33.6803 24.8213 33.4024 24.5602 33.1834 24.3875C32.9644 24.2148 32.7622 24.0295 32.7328 23.9748C32.7075 23.9242 32.6822 23.7937 32.6822 23.6842C32.678 23.5494 32.7033 23.4525 32.7665 23.3683C32.8128 23.3051 32.9181 23.204 32.9981 23.1535C33.116 23.0693 33.1792 23.0566 33.3518 23.0735V23.0735ZM19.8624 20.7909C20.0224 20.7866 20.2878 20.8119 20.452 20.8456C20.6205 20.8751 20.8521 20.9509 20.97 21.0099C21.0837 21.0688 21.2396 21.1783 21.3154 21.2583C21.3912 21.3341 21.4923 21.49 21.547 21.6079C21.627 21.7848 21.6439 21.8858 21.6397 22.2607C21.6397 22.6144 21.6186 22.7534 21.5386 22.9556C21.4754 23.1198 21.3786 23.2714 21.0753 23.5662L21.2311 23.6463C21.3196 23.6884 21.4544 23.7894 21.5344 23.8653C21.6144 23.9453 21.7155 24.0843 21.7534 24.1769C21.7955 24.2696 21.8418 24.4675 21.8587 24.6191C21.8713 24.7707 21.8629 25.0361 21.8376 25.2087C21.8081 25.4025 21.7407 25.6299 21.6523 25.7941C21.5639 25.9794 21.4501 26.1268 21.307 26.2405C21.189 26.3374 20.9827 26.4553 20.8437 26.5101C20.7047 26.5606 20.4941 26.6238 20.3804 26.6448C20.2625 26.6659 20.0182 26.6827 19.8329 26.6827C19.6476 26.6827 19.3781 26.6533 19.2307 26.6196C19.0875 26.5859 18.8685 26.5059 18.7464 26.4469C18.6284 26.3879 18.4347 26.2405 18.3252 26.1184C18.1989 25.9879 18.0894 25.8152 18.0388 25.672C17.9883 25.5372 17.9546 25.3351 17.9504 25.1877C17.9504 24.9981 17.9714 24.9181 18.0304 24.8592C18.0725 24.8171 18.1989 24.7665 18.3168 24.7455C18.4305 24.7202 18.6032 24.716 18.6958 24.7286C18.7885 24.7412 18.919 24.7749 18.9822 24.8002C19.0538 24.8297 19.117 24.9013 19.1422 24.9771C19.1633 25.0445 19.1801 25.1498 19.1801 25.2087C19.1801 25.2677 19.2223 25.3561 19.2728 25.4067C19.3275 25.4572 19.4202 25.5162 19.4834 25.5414C19.5508 25.5667 19.7276 25.5878 19.8835 25.5878C20.073 25.5878 20.2204 25.5625 20.3173 25.512C20.4015 25.474 20.4983 25.3772 20.5405 25.293C20.5994 25.175 20.6121 25.0655 20.6036 24.7791C20.591 24.4338 20.5826 24.4001 20.4647 24.2822C20.3594 24.1727 20.2836 24.1432 20.0098 24.1011C19.7571 24.0632 19.656 24.0253 19.5887 23.9537C19.5171 23.8737 19.496 23.8021 19.496 23.6084C19.496 23.4146 19.5171 23.343 19.5887 23.263C19.6518 23.1956 19.7487 23.1577 19.9129 23.1325C20.0435 23.1156 20.1867 23.0861 20.233 23.0609C20.2793 23.0356 20.3425 22.9682 20.3762 22.9008C20.4099 22.8376 20.4478 22.7029 20.4647 22.5976C20.4815 22.4923 20.4731 22.3281 20.4478 22.227C20.4141 22.1006 20.3636 22.0248 20.2625 21.9617C20.1488 21.8901 20.073 21.8774 19.7992 21.8901C19.5297 21.8985 19.4539 21.9195 19.3949 21.9869C19.357 22.0333 19.3107 22.1638 19.2939 22.2817C19.2728 22.4249 19.2307 22.526 19.1549 22.5976C19.0538 22.6945 19.0159 22.7029 18.6495 22.7029C18.2957 22.7029 18.2452 22.6945 18.161 22.606C18.0767 22.5218 18.0641 22.4712 18.0683 22.2059C18.0725 21.9743 18.0978 21.8479 18.182 21.6711C18.241 21.5405 18.3757 21.3594 18.4937 21.2541C18.6032 21.1488 18.7801 21.0267 18.8853 20.9846C18.9906 20.9383 19.1886 20.8793 19.3275 20.8456C19.4665 20.8161 19.7066 20.7909 19.8624 20.7909V20.7909ZM24.7814 20.7909C24.9078 20.7909 25.1352 20.8077 25.2868 20.8288C25.4384 20.854 25.6911 20.9383 25.8554 21.0141C26.0519 21.1095 26.2105 21.2246 26.3313 21.3594C26.4324 21.4731 26.5545 21.65 26.605 21.7553C26.6724 21.8943 26.6977 22.0248 26.6977 22.248C26.6977 22.5134 26.685 22.5597 26.5924 22.6566C26.5292 22.7239 26.4197 22.7787 26.3186 22.7913C26.226 22.8082 26.0617 22.8082 25.948 22.7913C25.8343 22.7787 25.7038 22.7281 25.6406 22.6692C25.569 22.6102 25.5185 22.5049 25.4932 22.366C25.4721 22.248 25.43 22.1301 25.4005 22.0964C25.3711 22.0627 25.2742 22.0038 25.1815 21.9617C25.0889 21.9195 24.9162 21.8816 24.8025 21.8816C24.6635 21.8816 24.5288 21.9153 24.4066 21.9743C24.2887 22.0375 24.1876 22.1259 24.1413 22.2186C24.0865 22.3196 24.0529 22.5049 24.036 22.7871C24.0234 23.0187 24.0234 23.242 24.036 23.2799C24.0655 23.3515 24.0739 23.3472 24.2003 23.263C24.2761 23.2125 24.4235 23.1451 24.5288 23.1156C24.634 23.0861 24.8699 23.0609 25.0552 23.0609C25.2405 23.0609 25.4721 23.0819 25.569 23.103C25.6701 23.1282 25.8301 23.183 25.927 23.2293C26.028 23.2714 26.1797 23.3767 26.2639 23.4609C26.3523 23.541 26.4703 23.6968 26.525 23.8063C26.5798 23.92 26.6471 24.1095 26.6724 24.2274C26.6977 24.3496 26.7187 24.5981 26.7187 24.7749C26.7187 24.956 26.6893 25.2214 26.6556 25.3645C26.6219 25.512 26.5545 25.7057 26.5082 25.7983C26.4618 25.891 26.3439 26.0552 26.2428 26.1605C26.1418 26.27 25.9607 26.4048 25.8133 26.4722C25.6743 26.5396 25.4469 26.6112 25.3079 26.6364C25.1689 26.6617 24.9246 26.6827 24.7604 26.6827C24.6003 26.6827 24.3519 26.6617 24.2129 26.6364C24.0739 26.6112 23.8633 26.548 23.7496 26.4974C23.6317 26.4469 23.4464 26.3206 23.3327 26.2153C23.2232 26.1142 23.0758 25.9247 23.0126 25.7983C22.9494 25.672 22.8736 25.4656 22.8484 25.3435C22.8189 25.2087 22.802 24.6023 22.802 23.7221C22.802 22.5976 22.8147 22.2733 22.8652 22.0712C22.9031 21.9322 22.9916 21.7174 23.0674 21.591C23.1432 21.4689 23.2948 21.292 23.4127 21.2036C23.5264 21.1194 23.7286 21.0056 23.8549 20.9551C23.9813 20.9046 24.1918 20.8498 24.3182 20.8288C24.4445 20.8119 24.6551 20.7951 24.7814 20.7909V20.7909ZM24.1202 24.3369C24.0697 24.4296 24.0486 24.577 24.0486 24.8297C24.0486 25.1119 24.0655 25.2171 24.1287 25.3309C24.175 25.4109 24.2676 25.512 24.3308 25.5625C24.4277 25.6341 24.5119 25.6509 24.7604 25.6509C25.0089 25.6509 25.0931 25.6341 25.19 25.5625C25.2531 25.5162 25.3416 25.4109 25.3795 25.3309C25.4342 25.2298 25.4553 25.0908 25.4553 24.8592C25.4553 24.6781 25.43 24.4759 25.3963 24.3959C25.3668 24.3243 25.2868 24.2148 25.2237 24.1558C25.1268 24.0674 25.0636 24.0506 24.7899 24.0379C24.5203 24.0295 24.4403 24.0421 24.3266 24.1095C24.255 24.1601 24.1581 24.2611 24.1202 24.3327V24.3369ZM29.6036 20.7951C29.7426 20.7951 29.9784 20.8119 30.1301 20.8372C30.2817 20.8582 30.5175 20.9298 30.6565 20.9972C30.7955 21.0604 30.985 21.1783 31.0776 21.2625C31.1703 21.3426 31.3051 21.5237 31.3767 21.6584C31.4525 21.7974 31.5325 22.0122 31.562 22.1385C31.5957 22.2986 31.6083 22.825 31.5957 23.8863C31.583 25.3224 31.5788 25.4151 31.4904 25.6341C31.4398 25.7604 31.3051 25.971 31.1913 26.0973C31.0776 26.2237 30.8923 26.3795 30.7786 26.4427C30.6649 26.5059 30.4417 26.5859 30.2775 26.6238C30.0542 26.6785 29.8689 26.6912 29.5194 26.6743C29.2077 26.6575 28.9761 26.6238 28.8034 26.5648C28.6644 26.5143 28.4581 26.4048 28.3402 26.3163C28.2265 26.2279 28.0664 26.0637 27.9906 25.9499C27.9148 25.832 27.8179 25.6341 27.78 25.5077C27.7169 25.3098 27.7084 25.0613 27.7084 23.7389C27.7084 22.3491 27.7169 22.1807 27.7885 21.9701C27.8306 21.8437 27.9232 21.6458 27.999 21.5321C28.0706 21.4184 28.197 21.2752 28.277 21.2078C28.357 21.1446 28.5297 21.0435 28.656 20.9846C28.7824 20.9256 28.9929 20.8625 29.1193 20.8414C29.2456 20.8161 29.4646 20.7993 29.6036 20.7951ZM29.0351 22.2312C28.9593 22.3997 28.9508 22.5049 28.9508 23.76C28.9508 24.9602 28.9593 25.1245 29.0266 25.255C29.0645 25.3351 29.1656 25.4446 29.2456 25.4993C29.3593 25.5709 29.452 25.5962 29.6457 25.5962C29.8395 25.5962 29.9321 25.5709 30.0416 25.4993C30.1216 25.4446 30.2269 25.3351 30.2732 25.255C30.3575 25.1161 30.3617 25.0445 30.3617 23.7389C30.3617 22.446 30.3575 22.3617 30.2775 22.227C30.2311 22.147 30.1385 22.0459 30.0753 21.9953C29.9911 21.9364 29.8774 21.9027 29.7173 21.8943C29.5447 21.8858 29.4267 21.9069 29.3004 21.9701C29.1656 22.0333 29.0982 22.1006 29.0351 22.2312Z" fill="white"/>
</svg>
