<svg width="20" height="20" viewBox="0 0 20 20" fill="none" xmlns="http://www.w3.org/2000/svg">
<path fill-rule="evenodd" clip-rule="evenodd" d="M16.3939 0.000467829C16.7572 -0.00343909 16.9173 0.0160955 17.2338 0.0981409C17.4486 0.152838 17.765 0.262232 17.9369 0.344277C18.1088 0.430229 18.3627 0.582599 18.4994 0.684179C18.64 0.789666 18.8588 0.992826 18.9877 1.13738C19.1205 1.27803 19.308 1.53589 19.4057 1.70389C19.5072 1.87188 19.6362 2.13365 19.6947 2.28211C19.7533 2.43448 19.8393 2.71187 19.8823 2.90722C19.9487 3.19242 19.9643 3.39168 19.9604 3.96209C19.9604 4.34887 19.9408 4.83333 19.9135 5.03649C19.8862 5.23965 19.8432 5.54048 19.8119 5.70067C19.7807 5.86085 19.7143 6.18512 19.6557 6.42345C19.601 6.66177 19.5112 6.99386 19.4526 7.16576C19.3979 7.33767 19.2846 7.66194 19.1986 7.88854C19.1127 8.11514 18.9486 8.49021 18.8275 8.72853C18.7104 8.96685 18.5775 9.20127 18.5307 9.24815C18.4838 9.29894 18.3978 9.36536 18.3353 9.39662C18.2768 9.42787 18.1635 9.45131 18.0814 9.45131C17.9955 9.45131 17.8861 9.42006 17.8041 9.36536C17.7299 9.31457 17.6322 9.22471 17.5892 9.16611C17.5306 9.08797 17.5072 9.00202 17.5111 8.87309C17.515 8.73244 17.5658 8.58788 17.7338 8.2597C17.851 8.02138 18.0346 7.61115 18.1322 7.34157C18.2338 7.072 18.3744 6.62661 18.4486 6.34531C18.5189 6.06401 18.6049 5.70457 18.6361 5.54439C18.6674 5.38421 18.7143 5.0404 18.7377 4.78254C18.765 4.52078 18.7768 4.06367 18.7689 3.74721C18.7533 3.26275 18.7338 3.13382 18.6439 2.86815C18.5854 2.69624 18.4877 2.46964 18.433 2.36025C18.3744 2.25476 18.1947 2.03207 18.0346 1.87188C17.8588 1.69607 17.6478 1.52807 17.5072 1.45384C17.3783 1.38743 17.1595 1.30147 17.0189 1.26631C16.8627 1.22333 16.6205 1.19989 16.3939 1.19989C16.1087 1.19989 15.9525 1.22333 15.7103 1.30147C15.5384 1.35617 15.2923 1.46947 15.1634 1.55152C15.0345 1.63356 14.8392 1.79374 14.7337 1.90314C14.6282 2.01644 14.472 2.21569 14.39 2.34853C14.3118 2.48527 14.2064 2.70796 14.1556 2.84861C14.0853 3.05959 14.0696 3.1807 14.0735 3.59093C14.0735 3.86051 14.1048 4.26292 14.1439 4.48952C14.179 4.71612 14.261 5.18105 14.3274 5.52486C14.4212 6.02885 14.4368 6.18122 14.4056 6.30624C14.3821 6.40001 14.3157 6.5094 14.2376 6.58363C14.1673 6.65005 14.0462 6.71647 13.972 6.73209C13.8978 6.74772 13.7806 6.74772 13.7181 6.736C13.6556 6.72037 13.554 6.67349 13.4954 6.63442C13.4329 6.59144 13.3587 6.5094 13.3274 6.44298C13.2962 6.37656 13.2181 6.0562 13.1555 5.72801C13.093 5.40374 13.0032 4.88021 12.9563 4.56766C12.9134 4.25511 12.8743 3.81753 12.8743 3.59093C12.8743 3.36433 12.8938 3.0674 12.9173 2.92675C12.9446 2.7861 12.9993 2.56732 13.0423 2.43839C13.0891 2.30946 13.1829 2.09067 13.2532 1.95002C13.3235 1.80937 13.4407 1.60621 13.5188 1.50073C13.597 1.39133 13.7688 1.19208 13.9056 1.05534C14.0384 0.918594 14.2806 0.719341 14.4407 0.609948C14.6009 0.500554 14.8548 0.359905 15.0072 0.293487C15.1595 0.230976 15.429 0.141117 15.6126 0.094234C15.8548 0.0317232 16.0697 0.00437475 16.3939 0.000467829ZM10.8664 3.18461C11.3586 3.19633 11.886 3.21196 12.3118 3.24321L12.3157 3.71986C12.3196 3.99725 12.3548 4.41529 12.4876 5.23184L12.3626 5.4936C12.2727 5.68895 12.2337 5.8296 12.2219 6.03275C12.2102 6.20466 12.2258 6.39219 12.2649 6.54065C12.3001 6.66958 12.3704 6.85321 12.4251 6.95088C12.4758 7.04855 12.5891 7.19702 12.6712 7.27906C12.7532 7.36502 12.8899 7.47832 12.9759 7.52911C13.0618 7.5838 13.2298 7.65803 13.347 7.70101C13.4759 7.74399 13.6673 7.77134 13.8353 7.77134C13.9876 7.77134 14.1868 7.74789 14.2845 7.71664C14.3821 7.68929 14.515 7.6385 14.5775 7.60334C14.64 7.57208 14.765 7.49004 14.8509 7.41971C14.9368 7.34939 15.0697 7.21265 15.1439 7.11497C15.222 7.01339 15.3236 6.81805 15.3704 6.6774C15.4251 6.51721 15.4564 6.32968 15.4564 6.1695C15.4564 6.02885 15.429 5.81787 15.3939 5.70067C15.3587 5.58346 15.2962 5.42327 15.2533 5.34904C15.2064 5.27481 15.0775 5.11463 14.9642 4.99742C14.7689 4.79426 14.7571 4.76691 14.7142 4.48952C14.6907 4.32934 14.6595 4.04804 14.64 3.86441C14.6204 3.68079 14.6165 3.50498 14.6243 3.47372C14.636 3.43074 14.6868 3.41902 14.8236 3.43075C14.9251 3.43856 15.2181 3.47372 15.4759 3.51279C15.7337 3.54795 16.0111 3.61046 16.097 3.65344C16.1791 3.69251 16.2806 3.77846 16.3197 3.84488C16.3587 3.90739 16.4095 4.05976 16.433 4.17697C16.4564 4.29417 16.5267 4.86459 16.5892 5.44672C16.6517 6.02494 16.7337 6.85321 16.7728 7.28297C16.8197 7.83385 16.8392 8.45114 16.8431 9.37317C16.8431 10.6468 16.8392 10.6859 16.7572 10.8578C16.6947 10.9867 15.5033 12.1979 12.304 15.3898C8.79218 18.8943 7.89763 19.7656 7.74137 19.8398C7.632 19.8906 7.51481 19.9492 7.47574 19.9648C7.44059 19.9844 7.28433 20 7.13589 20C6.91714 20 6.81167 19.9766 6.59682 19.8828C6.34681 19.7695 6.18665 19.6171 3.29987 16.726C1.33499 14.7608 0.225591 13.6278 0.163089 13.5145C0.112307 13.4168 0.0498057 13.2332 0.0263677 13.1043C-0.00878925 12.9285 -0.00878925 12.8113 0.0263677 12.6355C0.0537121 12.5065 0.108401 12.3307 0.15137 12.2448C0.202153 12.1432 1.76078 10.5531 4.6085 7.70101C7.0187 5.28653 9.02656 3.294 9.06953 3.27056C9.1125 3.24712 9.33125 3.21196 9.55782 3.19633C9.78438 3.1807 10.3742 3.1768 10.8664 3.18461ZM10.3 9.2169C10.0578 9.06453 9.88595 8.97857 9.76485 8.92778C9.63985 8.87699 9.40547 8.81448 9.24531 8.79104C9.03437 8.75588 8.87812 8.75588 8.69842 8.78323C8.5578 8.80667 8.33904 8.87699 8.21013 8.9395C8.08122 9.00202 7.87028 9.15439 7.74528 9.28331C7.58903 9.43178 7.47184 9.59587 7.39371 9.76386C7.29996 9.96702 7.27261 10.0842 7.26089 10.3499C7.24918 10.6039 7.2648 10.7601 7.3273 11.0024C7.37027 11.1821 7.53043 11.604 7.67887 11.94C7.82731 12.2799 7.96794 12.655 7.99529 12.7722C8.02654 12.9246 8.02654 13.034 7.99919 13.1434C7.97575 13.2293 7.90935 13.3465 7.85075 13.4051C7.79216 13.4637 7.67887 13.5301 7.60465 13.5536C7.53043 13.577 7.41715 13.5809 7.35074 13.5692C7.28433 13.5536 7.15542 13.5028 7.05777 13.4559C6.96011 13.409 6.7687 13.2527 6.62807 13.1121C6.48744 12.9714 6.29212 12.7175 6.18665 12.5495C6.08509 12.3815 5.95618 12.1315 5.90149 11.9908C5.8468 11.8502 5.79211 11.7056 5.77649 11.6704C5.75305 11.6118 5.67102 11.6509 5.22179 11.9166C4.93272 12.0924 4.68662 12.2409 4.6749 12.2487C4.66318 12.2565 4.67881 12.3229 4.71006 12.3893C4.7374 12.4596 4.82334 12.6394 4.90147 12.7917C4.97569 12.9441 5.08897 13.1434 5.15538 13.241C5.22179 13.3387 5.3546 13.5106 5.45226 13.6239L5.63195 13.8349L4.90928 14.5498L5.63195 15.2726L6.39369 14.5108C6.58901 14.6241 6.72573 14.6983 6.82339 14.7491C6.92104 14.796 7.13199 14.8741 7.29215 14.9171C7.4523 14.964 7.66325 14.9991 7.76091 14.9991C7.85856 14.9991 8.06169 14.9718 8.21013 14.9405C8.36248 14.9054 8.57342 14.8272 8.67889 14.7686C8.78827 14.7061 8.97577 14.5538 9.10078 14.4248C9.24141 14.2881 9.38203 14.0927 9.46407 13.9247C9.57344 13.7059 9.60469 13.5887 9.62423 13.3387C9.63985 13.0926 9.62813 12.9558 9.56172 12.6941C9.51485 12.5104 9.36641 12.0963 9.22969 11.7759C9.09296 11.4517 8.95234 11.0922 8.91718 10.975C8.88202 10.8578 8.85468 10.7132 8.85468 10.6507C8.85468 10.5921 8.88202 10.4866 8.91327 10.4163C8.94452 10.3499 9.02265 10.26 9.08906 10.221C9.15156 10.1858 9.27656 10.1546 9.3625 10.1546C9.44844 10.1546 9.59297 10.1936 9.68673 10.2405C9.77657 10.2874 9.93673 10.4046 10.0422 10.5023C10.1438 10.5999 10.3235 10.8226 10.4367 10.9945C10.5461 11.1665 10.6907 11.4243 10.7532 11.5689C10.8157 11.7134 10.8743 11.8228 10.886 11.8189C10.8977 11.8111 11.1321 11.6783 11.4055 11.5181C11.679 11.3579 11.9055 11.2094 11.9016 11.1899C11.9016 11.1665 11.8508 11.0453 11.7922 10.9164C11.7297 10.7875 11.6086 10.5765 11.5227 10.4476C11.4329 10.3186 11.3 10.1428 11.2258 10.0569L11.0852 9.90061L11.7454 9.23643L11.0227 8.51756L10.3 9.2169Z" fill="white"/>
</svg>
