<svg width="32" height="30" viewBox="0 0 32 30" fill="none" xmlns="http://www.w3.org/2000/svg">
<g opacity="0.65">
<path d="M0.651411 16.9285C0.596903 16.5488 0.542395 16.2234 0.530282 16.2113C0.512113 16.1993 0.5 15.6569 0.5 15.006C0.5 14.0539 0.530282 13.626 0.651411 12.8004C0.736202 12.2339 0.899726 11.4083 1.02086 10.9623C1.13593 10.5163 1.32973 9.8896 1.44481 9.57622C1.56594 9.26285 1.8627 8.59392 2.10496 8.09975C2.35328 7.60559 2.75906 6.88241 3.01343 6.50275C3.2678 6.12309 3.63119 5.62289 3.81894 5.38786C4.00669 5.15283 4.3943 4.7129 5.19375 3.8451L2.28665 0.952417V0.681229C2.28665 0.446199 2.31694 0.379908 2.48046 0.229248C2.60765 0.114746 2.77117 0.042429 2.9347 0.0183239C3.08005 0.000244141 5.26643 -0.00578117 7.79803 0.00627136C11.983 0.0243511 12.413 0.0364037 12.5523 0.126801C12.6371 0.181038 12.7401 0.295538 12.7825 0.379908C12.837 0.500437 12.8552 1.6093 12.8552 5.29747C12.8552 9.40748 12.8431 10.0824 12.7643 10.2391C12.7159 10.3356 12.5826 10.4621 12.4797 10.5103C12.3283 10.5706 12.2253 10.5826 12.0678 10.5405C11.9043 10.4922 11.5106 10.1367 8.97904 7.61764L8.67016 7.91896C8.50058 8.0877 8.1917 8.43723 7.98578 8.70239C7.77986 8.96756 7.50126 9.35927 7.36197 9.57622C7.22872 9.79317 7.01069 10.1849 6.87745 10.4501C6.74421 10.7152 6.5504 11.1612 6.44744 11.4444C6.34448 11.7277 6.20518 12.1736 6.13856 12.4388C6.07194 12.7039 5.98715 13.1378 5.94475 13.403C5.90236 13.6682 5.86602 14.3612 5.86602 14.9397C5.86602 15.6991 5.8963 16.1631 5.97504 16.597C6.0356 16.9285 6.18096 17.4949 6.29603 17.8625C6.41716 18.2302 6.62308 18.7725 6.76238 19.0678C6.90773 19.3631 7.18027 19.8693 7.38013 20.1827C7.57394 20.4961 7.93127 20.9842 8.16747 21.2675C8.40368 21.5507 8.79735 21.9726 9.04566 22.2016C9.29397 22.4366 9.69976 22.7801 9.94807 22.9669C10.1964 23.1537 10.6082 23.4249 10.8565 23.5756C11.1049 23.7202 11.5651 23.9492 11.874 24.0878C12.1768 24.2264 12.4554 24.3409 12.4918 24.3409C12.5281 24.3409 12.6311 24.4253 12.9157 24.7025V29.4031L12.7643 29.5839C12.6795 29.6864 12.5402 29.7828 12.4494 29.8009C12.3464 29.819 12.0557 29.7708 11.7347 29.6743C11.438 29.59 10.9595 29.4333 10.6748 29.3308C10.3902 29.2284 9.88751 29.0235 9.5544 28.8728C9.2213 28.7222 8.70044 28.457 8.40368 28.2883C8.10085 28.1195 7.66479 27.8544 7.43464 27.7037C7.2045 27.553 6.76843 27.2397 6.46561 27.0107C6.16279 26.7816 5.64799 26.3297 5.31488 26.0163C4.98178 25.7029 4.50332 25.2027 4.255 24.9135C4.00669 24.6182 3.60696 24.1059 3.3647 23.7745C3.12245 23.437 2.76511 22.8826 2.56525 22.533C2.35933 22.1835 2.05045 21.5748 1.86876 21.1771C1.68707 20.7793 1.43269 20.1285 1.29945 19.7307C1.16621 19.333 0.990573 18.6942 0.899726 18.3145C0.814936 17.9349 0.699863 17.3081 0.651411 16.9285Z" fill="url(#paint0_radial_220_461)"/>
<path d="M19.5233 5.65302C19.493 5.647 19.384 5.56866 19.2811 5.47826L19.0933 5.30952L19.0933 0.596859L19.2447 0.416067C19.3295 0.319645 19.4688 0.217196 19.5597 0.199116C19.6626 0.181036 19.9533 0.229248 20.2743 0.32567C20.5711 0.410042 21.0496 0.566729 21.3342 0.669178C21.6189 0.771627 22.1215 0.976524 22.4547 1.12718C22.7878 1.27784 23.3026 1.54301 23.6054 1.71175C23.9021 1.88049 24.3382 2.14565 24.5744 2.29631C24.8046 2.44697 25.2406 2.76035 25.5434 2.98935C25.8402 3.21835 26.3611 3.67033 26.6942 3.98371C27.0273 4.29708 27.5057 4.79727 27.7541 5.08654C28.0024 5.38184 28.4021 5.89408 28.6444 6.22553C28.8866 6.56301 29.2439 7.11744 29.4438 7.46698C29.6497 7.81651 29.9586 8.42518 30.1403 8.82292C30.322 9.22066 30.5764 9.87152 30.7096 10.2693C30.8428 10.667 31.0185 11.3058 31.1093 11.6855C31.1941 12.0651 31.3092 12.6738 31.3637 13.0414C31.4243 13.4211 31.4788 14.2166 31.4909 14.9096C31.5151 15.9703 31.4969 16.2414 31.3637 17.1695C31.2789 17.748 31.1093 18.5917 30.9882 19.0377C30.8731 19.4837 30.6793 20.1104 30.5642 20.4238C30.4431 20.7372 30.1464 21.4001 29.9041 21.9002C29.6558 22.3944 29.25 23.1176 28.9956 23.4973C28.7413 23.8769 28.3779 24.3831 28.1901 24.6121C28.0024 24.8411 27.6148 25.2871 26.8153 26.1549L29.7224 29.0416V29.3188C29.7224 29.5538 29.6921 29.6201 29.5225 29.7708C29.4014 29.8853 29.2379 29.9576 29.0683 29.9817C28.929 29.9998 26.7426 30.0058 24.211 29.9937C20.026 29.9757 19.596 29.9636 19.4567 29.8732C19.3719 29.819 19.269 29.7045 19.2266 29.6201C19.1721 29.4996 19.1539 28.3907 19.1539 24.7025C19.1539 20.5925 19.166 19.9176 19.2447 19.7609C19.2932 19.6584 19.4264 19.5379 19.5294 19.4897C19.6808 19.4294 19.7838 19.4174 19.9412 19.4595C20.1047 19.5078 20.4984 19.8633 23.03 22.3824L23.3389 22.081C23.5085 21.9123 23.8174 21.5628 24.0233 21.2976C24.2292 21.0324 24.5078 20.6407 24.6471 20.4238C24.7803 20.2068 24.9984 19.8151 25.1316 19.5499C25.2649 19.2848 25.4587 18.8388 25.5616 18.5556C25.6646 18.2723 25.8039 17.8264 25.8705 17.5612C25.9371 17.2961 26.0219 16.8622 26.0643 16.597C26.1128 16.3318 26.143 15.6448 26.143 15.0603C26.143 14.313 26.1128 13.8309 26.034 13.403C25.9735 13.0715 25.8281 12.5051 25.713 12.1375C25.5919 11.7698 25.386 11.2275 25.2467 10.9322C25.1013 10.6369 24.8348 10.1427 24.6471 9.84741C24.4654 9.55212 24.1323 9.08808 23.9203 8.82292C23.7023 8.55776 23.3026 8.12386 23.024 7.85869C22.7454 7.58751 22.3093 7.21989 22.061 7.03307C21.8127 6.84625 21.4008 6.57507 21.1525 6.42441C20.9042 6.27977 20.4439 6.05077 20.135 5.91216C19.8322 5.77355 19.5536 5.65905 19.5233 5.65302Z" fill="url(#paint1_radial_220_461)"/>
</g>
<defs>
<radialGradient id="paint0_radial_220_461" cx="0" cy="0" r="1" gradientUnits="userSpaceOnUse" gradientTransform="translate(16 15) rotate(0.427567) scale(67.0018 154.376)">
<stop stop-color="white" stop-opacity="0"/>
<stop offset="1" stop-color="white"/>
</radialGradient>
<radialGradient id="paint1_radial_220_461" cx="0" cy="0" r="1" gradientUnits="userSpaceOnUse" gradientTransform="translate(16 15) rotate(0.427567) scale(67.0018 154.376)">
<stop stop-color="white" stop-opacity="0"/>
<stop offset="1" stop-color="white"/>
</radialGradient>
</defs>
</svg>
