<svg width="20" height="20" viewBox="0 0 20 20" fill="none" xmlns="http://www.w3.org/2000/svg">
<path d="M7.20089 0.433036C7.23661 0.357143 7.33929 0.223214 7.4375 0.142857L7.61161 0H12.3884L12.5625 0.142857C12.6607 0.223214 12.7634 0.357143 12.7991 0.433036C12.8482 0.553571 12.8571 2.28125 12.8571 10C12.8571 17.7188 12.8482 19.4464 12.7991 19.5625C12.7634 19.6429 12.6607 19.7768 12.3884 20H7.61161L7.4375 19.8571C7.33929 19.7768 7.23661 19.6429 7.20089 19.567C7.15179 19.4464 7.14286 17.7188 7.14286 10C7.14286 2.28125 7.15179 0.553571 7.20089 0.433036Z" fill="white"/>
<path d="M14.4598 5.9375C14.5 5.875 14.6071 5.80357 14.692 5.77232C14.808 5.72768 15.3839 5.71429 17.1964 5.72321C19.5179 5.73214 19.5491 5.73661 19.6741 5.83036C19.7455 5.87946 19.8393 5.97768 19.8884 6.04464C19.9775 6.16495 19.9777 6.24523 19.991 12.7224L19.9911 12.7589C20 17.2455 19.9911 19.4018 19.9598 19.5179C19.9286 19.625 19.8437 19.7411 19.5312 20H14.7545L14.5804 19.8527C14.4821 19.7723 14.3795 19.6429 14.3482 19.5625C14.2991 19.442 14.2857 18.2009 14.2857 12.8527C14.2857 8.3125 14.3036 6.25446 14.3348 6.16964C14.3616 6.10268 14.4152 5.99554 14.4598 5.9375Z" fill="white"/>
<path d="M0.129464 11.7232C0.196429 11.625 0.325893 11.5223 0.40625 11.4866C0.53125 11.442 1.01786 11.4286 2.91071 11.4375C5.23214 11.4464 5.26339 11.4509 5.38839 11.5446C5.45982 11.5938 5.55357 11.692 5.60268 11.7589C5.69165 11.8746 5.69196 11.9592 5.70522 15.578L5.70536 15.6161C5.71429 18.125 5.70536 19.4063 5.67411 19.5179C5.64286 19.625 5.55804 19.7411 5.24554 20H0.46875L0.294643 19.8527C0.196429 19.7723 0.09375 19.6429 0.0580357 19.5625C0.0133929 19.4464 0 18.6741 0 11.8929L0.129464 11.7232Z" fill="white"/>
</svg>
